<svg id="Layer_1" data-name="Layer 1" xmlns="http://www.w3.org/2000/svg" viewBox="0 0 128 128"><defs><style>.cls-1{fill:#79c6df;}.cls-2,.cls-3,.cls-4{fill:none;stroke:#79c6df;}.cls-2,.cls-3{stroke-miterlimit:10;}.cls-2{stroke-width:1.42px;}.cls-3,.cls-4{stroke-width:2px;}.cls-4{stroke-linecap:round;stroke-linejoin:round;}</style></defs><path class="cls-1" d="M53.82,98.49h-2V78.76h-9V98.49h-2V77.74a1,1,0,0,1,1-1h11a1,1,0,0,1,1,1Z"/><line class="cls-2" x1="32.19" y1="98.61" x2="95.81" y2="98.61"/><path class="cls-1" d="M86.29,98.27H84.24V50.08H75.29V98.27h-2V49.05a1,1,0,0,1,1-1h11a1,1,0,0,1,1,1Z"/><path class="cls-1" d="M70.09,98.49h-2V64.13h-9V98.49h-2V63.11a1,1,0,0,1,1-1h11a1,1,0,0,1,1,1Z"/><polyline class="cls-1" points="68.05 98.49 68.05 64.13 59.09 64.13 59.09 98.49"/><line class="cls-3" x1="33.67" y1="68" x2="85.95" y2="29.62"/><path class="cls-3" d="M75,29.39H85.72a.52.52,0,0,1,.52.52v9.78"/><circle class="cls-4" cx="64" cy="64" r="61"/></svg>