<svg xmlns="http://www.w3.org/2000/svg" viewBox="0 0 29 29"><defs><style>.cls-1{fill:#c6dbf1;}.cls-2{fill:#00386c;}</style></defs><title>COSE-BSCIS-Computer_Info_Systems</title><g id="Layer_2" data-name="Layer 2"><g id="Layer_1-2" data-name="Layer 1"><circle class="cls-1" cx="14.5" cy="14.5" r="14"/><path class="cls-2" d="M14.5,29A14.5,14.5,0,1,1,29,14.5,14.51,14.51,0,0,1,14.5,29Zm0-28A13.5,13.5,0,1,0,28,14.5,13.52,13.52,0,0,0,14.5,1Z"/><path class="cls-2" d="M3.55,15.34V13.78l6.3-3v1.85l-4.19,2,4.19,1.95v1.84Z"/><path class="cls-2" d="M12.93,21.91H11.26L16.12,7.22H17.8Z"/><path class="cls-2" d="M19.15,18.36V16.52l4.19-1.95-4.19-2V10.76l6.3,3v1.56Z"/></g></g></svg>