<?xml version="1.0" encoding="utf-8"?>
<!-- Generator: Adobe Illustrator 24.0.0, SVG Export Plug-In . SVG Version: 6.00 Build 0)  -->
<svg version="1.1" id="Layer_1" xmlns="http://www.w3.org/2000/svg" xmlns:xlink="http://www.w3.org/1999/xlink" x="0px" y="0px"
	 viewBox="0 0 25 25" style="enable-background:new 0 0 25 25;" xml:space="preserve">
<style type="text/css">
	.st0{fill:#005893;}
</style>
<g>
	<path class="st0" d="M18.4,7.2c0.7,0,1.5-0.1,2.1,0c0.8,0.1,1.3,0.6,1.8,1.3c0.6,1,0.9,2,1,3.2c0.1,1.3,0,2.6-0.5,3.8
		c-0.3,0.9-0.9,1.7-1.8,2.1c-0.4,0.2-0.8,0.3-1.2,0.3c-2.4,0-4.8,0-7.1,0c-0.1,0-0.3,0-0.4,0c0,0.2,0,0.5,0,0.7c1.8,0,3.5,0,5.3,0
		c0,0.3,0,0.6,0,0.9c0,0.5,0,1.1,0,1.6c0,0.6-0.3,1-0.7,1.3c-0.8,0.6-1.7,0.8-2.6,0.9c-1.6,0.3-3.3,0.2-4.9-0.3
		c-0.7-0.2-1.3-0.5-1.8-1.1C7.2,21.6,7,21.2,7,20.7c0-1.8,0-3.5,0-5.3c0-1.4,1.1-2.5,2.5-2.5c1.4,0,2.8,0,4.2,0
		c0.7,0,1.4-0.1,2.1-0.2c1.3-0.2,2-1,2.2-2.3c0.1-0.9,0.2-1.9,0.2-2.8C18.4,7.4,18.4,7.3,18.4,7.2z M16.3,20.8
		c0-0.5-0.4-0.9-0.9-0.9c-0.6,0-1,0.4-1,1c0,0.5,0.4,0.9,0.9,0.9C15.9,21.8,16.3,21.3,16.3,20.8z"/>
	<path class="st0" d="M6.3,18c-0.8-0.1-1.7,0-2.5-0.2c-1-0.2-1.5-1.1-1.9-1.9c-0.6-1.3-0.8-2.7-0.6-4.1c0.1-1,0.3-2,0.9-3
		c0.6-1,1.5-1.6,2.7-1.5c2.3,0,4.7,0,7,0c0.1,0,0.3,0,0.4,0c0-0.2,0-0.4,0-0.7c-1.8,0-3.5,0-5.3,0c0-1,0-2,0-2.9
		c0-0.3,0.3-0.7,0.6-0.9c0.6-0.6,1.5-0.8,2.3-1c1.8-0.4,3.6-0.4,5.4,0.2c0.8,0.2,1.5,0.6,2,1.3c0.3,0.4,0.4,0.8,0.4,1.3
		c0,1.6,0,3.1,0,4.7c0,1.5-0.8,2.6-2.3,2.9c-0.1,0-0.3,0-0.4,0c-1.5,0-3,0-4.4,0c-0.7,0-1.4,0.1-2.1,0.2c-1.2,0.2-1.8,0.9-2,2
		c-0.1,0.9-0.1,1.7-0.2,2.6C6.3,17.3,6.3,17.6,6.3,18z M8.4,4.2c0,0.5,0.4,0.9,0.9,0.9c0.6,0,1-0.4,1-1c0-0.5-0.4-0.9-0.9-0.9
		C8.8,3.2,8.4,3.7,8.4,4.2z"/>
</g>
</svg>
